<svg width="105" height="142" viewBox="0 0 105 142" fill="none" xmlns="http://www.w3.org/2000/svg">
<path d="M0.728295 136.242C1.10519 129.458 6.50734 125.438 9.27122 119.659C13.1658 111.493 6.25607 104.583 15.1759 96.5428C24.0957 88.628 19.573 84.9847 24.8495 78.5775C30.2517 72.1703 41.1816 74.0548 41.1816 74.0548H63.544C63.544 74.0548 74.4739 72.1703 79.876 78.5775C85.2782 84.9847 80.6298 88.628 89.5496 96.5428C98.4695 104.458 91.5597 111.367 95.4543 119.659C97.0875 123.051 99.7258 125.689 101.61 128.956C110.656 143.655 96.8362 162.122 81.0067 162.122C81.0067 162.122 23.5932 162.122 23.4676 162.122C12.7889 165.766 5.12539 164.384 6.63297 154.961C7.88928 148.177 0.351401 142.901 0.728295 136.242Z" fill="#2DBB54"/>
<path d="M52.4885 62.8736L63.2928 61.1147C63.2928 61.1147 63.2928 75.3111 63.2928 85.236C63.2928 94.7839 53.2423 97.0453 52.4885 97.2966C51.7347 97.1709 41.8098 94.9096 41.8098 85.3616C41.8098 75.4367 41.8098 61.2404 41.8098 61.2404L52.4885 62.8736Z" fill="#F9D3B7"/>
<path d="M52.4884 47.7978L41.6841 46.039C41.6841 46.039 41.6841 60.2353 41.6841 70.1602C41.6841 74.9342 44.1967 77.9493 46.7093 79.7082C49.222 81.467 52.2371 82.2208 55.3779 82.0952C58.1418 81.9695 61.7851 80.7132 62.9158 78.2006C63.6696 76.4417 63.167 73.6779 63.167 70.2858C63.167 60.3609 63.167 46.1646 63.167 46.1646L52.4884 47.7978Z" fill="#F7B7A1"/>
<path d="M72.5894 42.6469C72.5894 42.6469 72.715 40.7625 76.4839 40.0087C80.2529 39.2549 81.6348 52.1949 74.7251 53.5769C67.8154 54.9588 68.5692 45.4108 72.5894 42.6469Z" fill="#F4C19F"/>
<path d="M37.5383 49.6823C37.5383 49.6823 36.6588 47.9234 32.8899 48.6772C29.121 49.431 32.8899 61.8685 39.674 60.4866C46.5837 59.2302 42.1866 50.6873 37.5383 49.6823Z" fill="#F4C19F"/>
<path d="M60.4031 74.4316C70.8305 72.2959 77.6146 62.1198 75.4789 51.818L72.5893 37.496C70.4536 27.0686 60.2775 20.2845 49.9757 22.4203C39.5483 24.556 32.7642 34.7321 34.8999 45.0339L37.7895 59.3559C39.7996 69.6576 49.9757 76.5674 60.4031 74.4316Z" fill="#F9D3B7"/>
<path d="M40.3022 57.7227C39.1715 51.9437 46.7094 52.3206 55.5036 50.5617C64.4234 48.8029 71.2075 45.5365 72.3382 51.3155C73.4689 57.0946 65.1772 52.6975 56.2574 54.5819C47.5888 56.3408 41.5585 63.6274 40.3022 57.7227Z" fill="#F7B7A1"/>
<path d="M27.9903 44.1545C33.0156 37.3704 29.8748 37.873 30.6286 31.0889C31.3824 24.3048 38.669 18.5257 38.669 18.5257C38.669 18.5257 31.6337 12.7467 36.6589 8.60086C41.6842 4.32939 46.7094 5.46007 46.7094 5.46007C46.7094 5.46007 51.3578 -3.08286 60.152 2.06803C67.6898 6.46513 63.6696 12.3698 60.6545 15.0081C63.2928 16.0131 68.8205 18.5257 71.3332 22.9228C74.7252 28.8275 71.8357 30.0838 78.9967 34.3553C86.1576 38.7524 71.71 45.6621 75.6046 50.9386C79.4992 56.2151 76.8609 59.2303 76.8609 59.2303C76.8609 59.2303 77.7403 54.8332 73.7201 52.9487C69.6999 51.0642 68.1924 47.9235 71.71 41.3906C75.1021 34.9834 51.1065 40.8881 44.5737 27.6968C43.6943 42.3957 32.0106 43.1495 37.664 47.7978C43.3174 52.4462 43.1917 55.9639 40.1766 59.2303C37.1614 62.4967 39.6741 66.2656 39.6741 66.2656C39.6741 66.2656 36.0308 64.5068 37.664 58.0996C39.0459 51.818 22.9651 51.0642 27.9903 44.1545Z" fill="#081E29"/>
<path d="M65.3028 43.5263C65.3028 43.5263 61.7852 44.657 58.1418 42.3956" stroke="#081E29" stroke-width="1.4219" stroke-miterlimit="10" stroke-linecap="round" stroke-linejoin="round"/>
<path d="M44.1968 47.7978C44.1968 47.7978 47.8401 47.4209 50.3527 44.0288" stroke="#081E29" stroke-width="1.4219" stroke-miterlimit="10" stroke-linecap="round" stroke-linejoin="round"/>
<path d="M49.7247 50.5617C49.8503 51.3155 49.3478 52.0693 48.594 52.3206C47.8402 52.4462 47.0864 51.9437 46.8352 51.1899C46.7095 50.4361 47.212 49.6823 47.9658 49.431C48.8453 49.3054 49.599 49.8079 49.7247 50.5617Z" fill="#081E29"/>
<path d="M64.1722 47.6721C64.2978 48.4259 63.7953 49.1797 63.0415 49.431C62.2877 49.5566 61.5339 49.0541 61.2827 48.3003C61.157 47.5465 61.6596 46.7927 62.4133 46.5415C63.1671 46.4158 63.9209 46.9183 64.1722 47.6721Z" fill="#081E29"/>
<path d="M56.0062 61.4916C55.8806 60.9891 55.8806 60.4866 55.8806 59.9841C55.8806 58.0996 58.142 57.5971 58.8958 59.3559C59.147 59.8584 59.2727 60.2353 59.3983 60.7378C59.6496 61.4916 59.6496 62.2454 59.5239 62.7479C59.2727 64.2555 57.5138 64.6324 56.6344 63.3761C56.3831 62.8736 56.1319 62.2454 56.0062 61.4916Z" fill="#081E29"/>
<path d="M54.7498 46.5415C54.7498 46.5415 59.9006 54.4563 56.5086 55.0845" stroke="#081E29" stroke-width="0.710948" stroke-miterlimit="10" stroke-linecap="round" stroke-linejoin="round"/>
<path d="M68.1922 106.216L64.0464 82.2208C64.0464 82.2208 60.9056 80.0851 61.1568 74.306C61.4081 68.527 59.6493 65.8887 58.0161 63.8786C56.7598 62.6223 59.0211 60.3609 62.9157 69.0295C61.6594 61.7429 58.1417 60.6122 58.5186 59.7328C59.0211 58.8534 62.4132 59.984 64.5489 66.5169C63.6695 59.984 59.6493 57.8483 60.2774 56.8433C61.1568 55.4613 66.559 60.4866 66.6846 67.145C67.8153 60.4866 63.1669 57.7227 63.9207 56.2151C64.6745 54.7075 70.3279 61.4916 69.3229 70.914C70.9561 67.8988 68.8204 63.753 70.2023 63.2505C71.5842 62.7479 74.2225 72.2959 69.3229 81.2157C72.2124 89.8843 77.9914 103.076 77.9914 103.076L68.1922 106.216Z" fill="#F9C4A0"/>
<path d="M89.2983 160.489C89.2983 160.489 100.354 155.213 96.7105 140.137C93.3185 125.689 94.4491 101.819 78.9965 96.0403C77.8658 95.5378 76.4839 95.789 75.4788 96.5428C72.5893 98.6785 69.0716 99.1811 66.9359 99.3067C65.4283 99.3067 64.172 100.312 63.6695 101.694C62.2875 105.337 60.2774 113.126 62.5388 124.307C65.8052 140.388 60.9056 158.73 72.338 161.745C83.6449 164.761 89.2983 160.489 89.2983 160.489Z" fill="#45E471"/>
<path d="M42.6892 68.7782C42.6892 68.7782 49.8502 77.0699 60.4032 74.4316" stroke="#081E29" stroke-width="0.710948" stroke-miterlimit="10" stroke-linecap="round" stroke-linejoin="round"/>
</svg>
